# xmcd CD database file
#
# Track frame offsets:
#	150
#	20883
#	43148
#	58451
#	78404
#	99297
#	119305
#	138208
#	159761
#	181467
#	199392
#	221808
#	243161
#	261384
#	283604
#
# Disc length: 4079 seconds
#
# Revision: 2
# Processed by: cddbd v1.5.2PL0 Copyright (c) Steve Scherf et al.
# Submitted via: CDex 1.70beta3
#
DISCID=e00fed0f
DTITLE=竹内まりや - Impressions
DYEAR=1994
DGENRE=JPop
TTITLE0=けんかをやめて
TTITLE1=明日の私
TTITLE2=マージービートで唄わせて
TTITLE3=Forever Friends
TTITLE4=恋の嵐
TTITLE5=シングル・アゲイン
TTITLE6=もう一度
TTITLE7=マンハッタン・キス
TTITLE8=元気を出して
TTITLE9=本気でオンリーユー  (Let's Get Married)
TTITLE10=告白
TTITLE11=純愛ラプソディ
TTITLE12=リンダ
TTITLE13=家に帰ろう （マイ・スイート・ホーム）
TTITLE14=駅
EXTD=YEAR: 1994
EXTT0=
EXTT1=
EXTT2=
EXTT3=
EXTT4=
EXTT5=
EXTT6=
EXTT7=
EXTT8=
EXTT9=
EXTT10=
EXTT11=
EXTT12=
EXTT13=
EXTT14=
PLAYORDER=
